<?xml version="1.0" encoding="UTF-8" standalone="no"?>
<!DOCTYPE svg PUBLIC "-//W3C//DTD SVG 1.1//EN"
 "http://www.w3.org/Graphics/SVG/1.1/DTD/svg11.dtd">
<!-- Generated by graphviz version 5.0.0 (20220707.1540)
 -->
<!-- Title: dependencies Pages: 1 -->
<svg width="6701pt" height="253pt"
 viewBox="0.00 0.00 6701.00 252.80" xmlns="http://www.w3.org/2000/svg" xmlns:xlink="http://www.w3.org/1999/xlink">
<g id="graph0" class="graph" transform="scale(1 1) rotate(0) translate(4 248.8)">
<title>dependencies</title>
<polygon fill="white" stroke="transparent" points="-4,4 -4,-248.8 6697,-248.8 6697,4 -4,4"/>
<text text-anchor="middle" x="3346.5" y="-8.2" font-family="sans-serif" font-size="14.00">dependencies</text>
<g id="clust1" class="cluster">
<title>cluster_AppModule</title>
<polygon fill="none" stroke="black" stroke-dasharray="1,5" points="8,-32.8 8,-236.8 526,-236.8 526,-32.8 8,-32.8"/>
</g>
<g id="clust2" class="cluster">
<title>cluster_AppModule_declarations</title>
<polygon fill="none" stroke="black" points="16,-40.8 16,-92.8 261,-92.8 261,-40.8 16,-40.8"/>
</g>
<g id="clust5" class="cluster">
<title>cluster_AppModule_imports</title>
<polygon fill="none" stroke="black" points="269,-40.8 269,-92.8 518,-92.8 518,-40.8 269,-40.8"/>
</g>
<g id="clust7" class="cluster">
<title>cluster_AppModule_bootstrap</title>
<polygon fill="none" stroke="black" points="208,-176.8 208,-228.8 332,-228.8 332,-176.8 208,-176.8"/>
</g>
<g id="clust15" class="cluster">
<title>cluster_ClientsModule</title>
<polygon fill="none" stroke="black" stroke-dasharray="1,5" points="3350,-32.8 3350,-160.8 4088,-160.8 4088,-32.8 3350,-32.8"/>
</g>
<g id="clust16" class="cluster">
<title>cluster_ClientsModule_declarations</title>
<polygon fill="none" stroke="black" points="3526,-40.8 3526,-92.8 4080,-92.8 4080,-40.8 3526,-40.8"/>
</g>
<g id="clust20" class="cluster">
<title>cluster_ClientsModule_imports</title>
<polygon fill="none" stroke="black" points="3358,-40.8 3358,-92.8 3518,-92.8 3518,-40.8 3358,-40.8"/>
</g>
<g id="clust30" class="cluster">
<title>cluster_CoreModule</title>
<polygon fill="none" stroke="black" stroke-dasharray="1,5" points="534,-100.8 534,-168.8 1707,-168.8 1707,-100.8 534,-100.8"/>
</g>
<g id="clust31" class="cluster">
<title>cluster_CoreModule_declarations</title>
<polygon fill="none" stroke="black" points="542,-108.8 542,-160.8 938,-160.8 938,-108.8 542,-108.8"/>
</g>
<g id="clust36" class="cluster">
<title>cluster_CoreModule_exports</title>
<polygon fill="none" stroke="black" points="946,-108.8 946,-160.8 1699,-160.8 1699,-108.8 946,-108.8"/>
</g>
<g id="clust39" class="cluster">
<title>cluster_IconsModule</title>
<polygon fill="none" stroke="black" stroke-dasharray="1,5" points="4096,-32.8 4096,-236.8 4737,-236.8 4737,-32.8 4096,-32.8"/>
</g>
<g id="clust40" class="cluster">
<title>cluster_IconsModule_declarations</title>
<polygon fill="none" stroke="black" points="4111,-40.8 4111,-92.8 4721,-92.8 4721,-40.8 4111,-40.8"/>
</g>
<g id="clust46" class="cluster">
<title>cluster_IconsModule_exports</title>
<polygon fill="none" stroke="black" points="4104,-176.8 4104,-228.8 4729,-228.8 4729,-176.8 4104,-176.8"/>
</g>
<g id="clust49" class="cluster">
<title>cluster_LoginModule</title>
<polygon fill="none" stroke="black" stroke-dasharray="1,5" points="4745,-32.8 4745,-160.8 5683,-160.8 5683,-32.8 4745,-32.8"/>
</g>
<g id="clust50" class="cluster">
<title>cluster_LoginModule_declarations</title>
<polygon fill="none" stroke="black" points="4915,-40.8 4915,-92.8 5675,-92.8 5675,-40.8 4915,-40.8"/>
</g>
<g id="clust55" class="cluster">
<title>cluster_LoginModule_imports</title>
<polygon fill="none" stroke="black" points="4753,-40.8 4753,-92.8 4907,-92.8 4907,-40.8 4753,-40.8"/>
</g>
<g id="clust65" class="cluster">
<title>cluster_OrdersModule</title>
<polygon fill="none" stroke="black" stroke-dasharray="1,5" points="1715,-32.8 1715,-160.8 2564,-160.8 2564,-32.8 1715,-32.8"/>
</g>
<g id="clust66" class="cluster">
<title>cluster_OrdersModule_declarations</title>
<polygon fill="none" stroke="black" points="1723,-40.8 1723,-92.8 2273,-92.8 2273,-40.8 1723,-40.8"/>
</g>
<g id="clust70" class="cluster">
<title>cluster_OrdersModule_imports</title>
<polygon fill="none" stroke="black" points="2281,-40.8 2281,-92.8 2556,-92.8 2556,-40.8 2281,-40.8"/>
</g>
<g id="clust80" class="cluster">
<title>cluster_PageNotFoundModule</title>
<polygon fill="none" stroke="black" stroke-dasharray="1,5" points="5691,-32.8 5691,-160.8 6101,-160.8 6101,-32.8 5691,-32.8"/>
</g>
<g id="clust81" class="cluster">
<title>cluster_PageNotFoundModule_declarations</title>
<polygon fill="none" stroke="black" points="5911,-40.8 5911,-92.8 6093,-92.8 6093,-40.8 5911,-40.8"/>
</g>
<g id="clust83" class="cluster">
<title>cluster_PageNotFoundModule_imports</title>
<polygon fill="none" stroke="black" points="5699,-40.8 5699,-92.8 5903,-92.8 5903,-40.8 5699,-40.8"/>
</g>
<g id="clust93" class="cluster">
<title>cluster_SharedModule</title>
<polygon fill="none" stroke="black" stroke-dasharray="1,5" points="2572,-100.8 2572,-168.8 3342,-168.8 3342,-100.8 2572,-100.8"/>
</g>
<g id="clust94" class="cluster">
<title>cluster_SharedModule_declarations</title>
<polygon fill="none" stroke="black" points="2966,-108.8 2966,-160.8 3334,-160.8 3334,-108.8 2966,-108.8"/>
</g>
<g id="clust99" class="cluster">
<title>cluster_SharedModule_exports</title>
<polygon fill="none" stroke="black" points="2580,-108.8 2580,-160.8 2958,-160.8 2958,-108.8 2580,-108.8"/>
</g>
<g id="clust102" class="cluster">
<title>cluster_TemplatesModule</title>
<polygon fill="none" stroke="black" stroke-dasharray="1,5" points="6109,-32.8 6109,-236.8 6547,-236.8 6547,-32.8 6109,-32.8"/>
</g>
<g id="clust103" class="cluster">
<title>cluster_TemplatesModule_declarations</title>
<polygon fill="none" stroke="black" points="6120,-40.8 6120,-92.8 6536,-92.8 6536,-40.8 6120,-40.8"/>
</g>
<g id="clust107" class="cluster">
<title>cluster_TemplatesModule_exports</title>
<polygon fill="none" stroke="black" points="6117,-176.8 6117,-228.8 6539,-228.8 6539,-176.8 6117,-176.8"/>
</g>
<g id="clust110" class="cluster">
<title>cluster_UiModule</title>
<polygon fill="none" stroke="black" stroke-dasharray="1,5" points="6555,-32.8 6555,-236.8 6685,-236.8 6685,-32.8 6555,-32.8"/>
</g>
<g id="clust111" class="cluster">
<title>cluster_UiModule_declarations</title>
<polygon fill="none" stroke="black" points="6564,-40.8 6564,-92.8 6676,-92.8 6676,-40.8 6564,-40.8"/>
</g>
<g id="clust114" class="cluster">
<title>cluster_UiModule_exports</title>
<polygon fill="none" stroke="black" points="6563,-176.8 6563,-228.8 6677,-228.8 6677,-176.8 6563,-176.8"/>
</g>
<!-- AppComponent -->
<g id="node1" class="node">
<title>AppComponent</title>
<polygon fill="#ffffb3" stroke="black" points="252.94,-84.8 147.06,-84.8 147.06,-48.8 252.94,-48.8 252.94,-84.8"/>
<text text-anchor="middle" x="200" y="-62.6" font-family="Times,serif" font-size="14.00">AppComponent</text>
</g>
<!-- AppModule -->
<g id="node3" class="node">
<title>AppModule</title>
<polygon fill="#8dd3c7" stroke="black" points="311.66,-152.8 308.66,-156.8 287.66,-156.8 284.66,-152.8 228.34,-152.8 228.34,-116.8 311.66,-116.8 311.66,-152.8"/>
<text text-anchor="middle" x="270" y="-130.6" font-family="Times,serif" font-size="14.00">AppModule</text>
</g>
<!-- AppComponent&#45;&gt;AppModule -->
<g id="edge1" class="edge">
<title>AppComponent&#45;&gt;AppModule</title>
<path fill="none" stroke="black" d="M240.44,-85.02C240.44,-85.02 240.44,-106.53 240.44,-106.53"/>
<polygon fill="black" stroke="black" points="236.94,-106.53 240.44,-116.53 243.94,-106.53 236.94,-106.53"/>
</g>
<!-- TestComponent -->
<g id="node2" class="node">
<title>TestComponent</title>
<polygon fill="#ffffb3" stroke="black" points="129.94,-84.8 24.06,-84.8 24.06,-48.8 129.94,-48.8 129.94,-84.8"/>
<text text-anchor="middle" x="77" y="-62.6" font-family="Times,serif" font-size="14.00">TestComponent</text>
</g>
<!-- TestComponent&#45;&gt;AppModule -->
<g id="edge2" class="edge">
<title>TestComponent&#45;&gt;AppModule</title>
<path fill="none" stroke="black" d="M77,-85.02C77,-105.17 77,-134.8 77,-134.8 77,-134.8 218.12,-134.8 218.12,-134.8"/>
<polygon fill="black" stroke="black" points="218.12,-138.3 228.12,-134.8 218.12,-131.3 218.12,-138.3"/>
</g>
<!-- AppComponent  -->
<g id="node6" class="node">
<title>AppComponent </title>
<polygon fill="#80b1d3" stroke="black" points="324.44,-220.8 215.56,-220.8 215.56,-184.8 324.44,-184.8 324.44,-220.8"/>
<text text-anchor="middle" x="270" y="-198.6" font-family="Times,serif" font-size="14.00">AppComponent </text>
</g>
<!-- AppModule&#45;&gt;AppComponent  -->
<g id="edge5" class="edge">
<title>AppModule&#45;&gt;AppComponent </title>
<path fill="none" stroke="black" stroke-dasharray="1,5" d="M270,-153.02C270,-153.02 270,-174.53 270,-174.53"/>
<polygon fill="black" stroke="black" points="266.5,-174.53 270,-184.53 273.5,-174.53 266.5,-174.53"/>
</g>
<!-- AppRoutingModule -->
<g id="node4" class="node">
<title>AppRoutingModule</title>
<polygon fill="#8dd3c7" stroke="black" points="405.28,-84.8 402.28,-88.8 381.28,-88.8 378.28,-84.8 276.72,-84.8 276.72,-48.8 405.28,-48.8 405.28,-84.8"/>
<text text-anchor="middle" x="341" y="-62.6" font-family="Times,serif" font-size="14.00">AppRoutingModule</text>
</g>
<!-- AppRoutingModule&#45;&gt;AppModule -->
<g id="edge3" class="edge">
<title>AppRoutingModule&#45;&gt;AppModule</title>
<path fill="none" stroke="black" d="M294.22,-85.02C294.22,-85.02 294.22,-106.53 294.22,-106.53"/>
<polygon fill="black" stroke="black" points="290.72,-106.53 294.22,-116.53 297.72,-106.53 290.72,-106.53"/>
</g>
<!-- CoreModule -->
<g id="node5" class="node">
<title>CoreModule</title>
<polygon fill="#8dd3c7" stroke="black" points="510.27,-84.8 507.27,-88.8 486.27,-88.8 483.27,-84.8 423.73,-84.8 423.73,-48.8 510.27,-48.8 510.27,-84.8"/>
<text text-anchor="middle" x="467" y="-62.6" font-family="Times,serif" font-size="14.00">CoreModule</text>
</g>
<!-- CoreModule&#45;&gt;AppModule -->
<g id="edge4" class="edge">
<title>CoreModule&#45;&gt;AppModule</title>
<path fill="none" stroke="black" d="M452.54,-85.07C452.54,-103.36 452.54,-128.8 452.54,-128.8 452.54,-128.8 321.88,-128.8 321.88,-128.8"/>
<polygon fill="black" stroke="black" points="321.88,-125.3 311.88,-128.8 321.88,-132.3 321.88,-125.3"/>
</g>
<!-- FooterComponent  -->
<g id="node15" class="node">
<title>FooterComponent </title>
<polygon fill="#fb8072" stroke="black" points="1313.88,-152.8 1192.12,-152.8 1192.12,-116.8 1313.88,-116.8 1313.88,-152.8"/>
<text text-anchor="middle" x="1253" y="-130.6" font-family="Times,serif" font-size="14.00">FooterComponent </text>
</g>
<!-- CoreModule&#45;&gt;FooterComponent  -->
<g id="edge13" class="edge">
<title>CoreModule&#45;&gt;FooterComponent </title>
<path fill="none" stroke="black" stroke-dasharray="5,2" d="M510.38,-64.8C675.15,-64.8 1253,-64.8 1253,-64.8 1253,-64.8 1253,-106.77 1253,-106.77"/>
<polygon fill="black" stroke="black" points="1249.5,-106.77 1253,-116.77 1256.5,-106.77 1249.5,-106.77"/>
</g>
<!-- HeaderComponent  -->
<g id="node16" class="node">
<title>HeaderComponent </title>
<polygon fill="#fb8072" stroke="black" points="1174.75,-152.8 1049.25,-152.8 1049.25,-116.8 1174.75,-116.8 1174.75,-152.8"/>
<text text-anchor="middle" x="1112" y="-130.6" font-family="Times,serif" font-size="14.00">HeaderComponent </text>
</g>
<!-- CoreModule&#45;&gt;HeaderComponent  -->
<g id="edge14" class="edge">
<title>CoreModule&#45;&gt;HeaderComponent </title>
<path fill="none" stroke="black" stroke-dasharray="5,2" d="M510.32,-68.8C654.94,-68.8 1112,-68.8 1112,-68.8 1112,-68.8 1112,-106.77 1112,-106.77"/>
<polygon fill="black" stroke="black" points="1108.5,-106.77 1112,-116.77 1115.5,-106.77 1108.5,-106.77"/>
</g>
<!-- IconsModule  -->
<g id="node17" class="node">
<title>IconsModule </title>
<polygon fill="#fb8072" stroke="black" points="1551.88,-152.8 1458.12,-152.8 1458.12,-116.8 1551.88,-116.8 1551.88,-152.8"/>
<text text-anchor="middle" x="1505" y="-130.6" font-family="Times,serif" font-size="14.00">IconsModule </text>
</g>
<!-- CoreModule&#45;&gt;IconsModule  -->
<g id="edge15" class="edge">
<title>CoreModule&#45;&gt;IconsModule </title>
<path fill="none" stroke="black" stroke-dasharray="5,2" d="M510.28,-56.8C704.89,-56.8 1489.44,-56.8 1489.44,-56.8 1489.44,-56.8 1489.44,-106.71 1489.44,-106.71"/>
<polygon fill="black" stroke="black" points="1485.94,-106.71 1489.44,-116.71 1492.94,-106.71 1485.94,-106.71"/>
</g>
<!-- NavComponent  -->
<g id="node18" class="node">
<title>NavComponent </title>
<polygon fill="#fb8072" stroke="black" points="1440.16,-152.8 1331.84,-152.8 1331.84,-116.8 1440.16,-116.8 1440.16,-152.8"/>
<text text-anchor="middle" x="1386" y="-130.6" font-family="Times,serif" font-size="14.00">NavComponent </text>
</g>
<!-- CoreModule&#45;&gt;NavComponent  -->
<g id="edge16" class="edge">
<title>CoreModule&#45;&gt;NavComponent </title>
<path fill="none" stroke="black" stroke-dasharray="5,2" d="M510.4,-60.8C692.56,-60.8 1386,-60.8 1386,-60.8 1386,-60.8 1386,-106.51 1386,-106.51"/>
<polygon fill="black" stroke="black" points="1382.5,-106.51 1386,-116.51 1389.5,-106.51 1382.5,-106.51"/>
</g>
<!-- TemplatesModule  -->
<g id="node19" class="node">
<title>TemplatesModule </title>
<polygon fill="#fb8072" stroke="black" points="1690.86,-152.8 1569.14,-152.8 1569.14,-116.8 1690.86,-116.8 1690.86,-152.8"/>
<text text-anchor="middle" x="1630" y="-130.6" font-family="Times,serif" font-size="14.00">TemplatesModule </text>
</g>
<!-- CoreModule&#45;&gt;TemplatesModule  -->
<g id="edge17" class="edge">
<title>CoreModule&#45;&gt;TemplatesModule </title>
<path fill="none" stroke="black" stroke-dasharray="5,2" d="M510.4,-52.8C719.14,-52.8 1609.77,-52.8 1609.77,-52.8 1609.77,-52.8 1609.77,-106.6 1609.77,-106.6"/>
<polygon fill="black" stroke="black" points="1606.27,-106.6 1609.77,-116.6 1613.27,-106.6 1606.27,-106.6"/>
</g>
<!-- UiModule  -->
<g id="node20" class="node">
<title>UiModule </title>
<polygon fill="#fb8072" stroke="black" points="1031.55,-152.8 954.45,-152.8 954.45,-116.8 1031.55,-116.8 1031.55,-152.8"/>
<text text-anchor="middle" x="993" y="-130.6" font-family="Times,serif" font-size="14.00">UiModule </text>
</g>
<!-- CoreModule&#45;&gt;UiModule  -->
<g id="edge18" class="edge">
<title>CoreModule&#45;&gt;UiModule </title>
<path fill="none" stroke="black" stroke-dasharray="5,2" d="M510.49,-72.8C636.52,-72.8 993,-72.8 993,-72.8 993,-72.8 993,-106.53 993,-106.53"/>
<polygon fill="black" stroke="black" points="989.5,-106.53 993,-116.53 996.5,-106.53 989.5,-106.53"/>
</g>
<!-- PageAddClientComponent -->
<g id="node7" class="node">
<title>PageAddClientComponent</title>
<polygon fill="#ffffb3" stroke="black" points="4072.38,-84.8 3905.62,-84.8 3905.62,-48.8 4072.38,-48.8 4072.38,-84.8"/>
<text text-anchor="middle" x="3989" y="-62.6" font-family="Times,serif" font-size="14.00">PageAddClientComponent</text>
</g>
<!-- ClientsModule -->
<g id="node10" class="node">
<title>ClientsModule</title>
<polygon fill="#8dd3c7" stroke="black" points="3761.72,-152.8 3758.72,-156.8 3737.72,-156.8 3734.72,-152.8 3662.28,-152.8 3662.28,-116.8 3761.72,-116.8 3761.72,-152.8"/>
<text text-anchor="middle" x="3712" y="-130.6" font-family="Times,serif" font-size="14.00">ClientsModule</text>
</g>
<!-- PageAddClientComponent&#45;&gt;ClientsModule -->
<g id="edge6" class="edge">
<title>PageAddClientComponent&#45;&gt;ClientsModule</title>
<path fill="none" stroke="black" d="M3989,-84.82C3989,-102.17 3989,-125.8 3989,-125.8 3989,-125.8 3771.84,-125.8 3771.84,-125.8"/>
<polygon fill="black" stroke="black" points="3771.84,-122.3 3761.84,-125.8 3771.84,-129.3 3771.84,-122.3"/>
</g>
<!-- PageEditClientComponent -->
<g id="node8" class="node">
<title>PageEditClientComponent</title>
<polygon fill="#ffffb3" stroke="black" points="3888.1,-84.8 3721.9,-84.8 3721.9,-48.8 3888.1,-48.8 3888.1,-84.8"/>
<text text-anchor="middle" x="3805" y="-62.6" font-family="Times,serif" font-size="14.00">PageEditClientComponent</text>
</g>
<!-- PageEditClientComponent&#45;&gt;ClientsModule -->
<g id="edge7" class="edge">
<title>PageEditClientComponent&#45;&gt;ClientsModule</title>
<path fill="none" stroke="black" d="M3741.78,-85.02C3741.78,-85.02 3741.78,-106.53 3741.78,-106.53"/>
<polygon fill="black" stroke="black" points="3738.28,-106.53 3741.78,-116.53 3745.28,-106.53 3738.28,-106.53"/>
</g>
<!-- PageListClientsComponent -->
<g id="node9" class="node">
<title>PageListClientsComponent</title>
<polygon fill="#ffffb3" stroke="black" points="3703.99,-84.8 3534.01,-84.8 3534.01,-48.8 3703.99,-48.8 3703.99,-84.8"/>
<text text-anchor="middle" x="3619" y="-62.6" font-family="Times,serif" font-size="14.00">PageListClientsComponent</text>
</g>
<!-- PageListClientsComponent&#45;&gt;ClientsModule -->
<g id="edge8" class="edge">
<title>PageListClientsComponent&#45;&gt;ClientsModule</title>
<path fill="none" stroke="black" d="M3683.19,-85.02C3683.19,-85.02 3683.19,-106.53 3683.19,-106.53"/>
<polygon fill="black" stroke="black" points="3679.69,-106.53 3683.19,-116.53 3686.69,-106.53 3679.69,-106.53"/>
</g>
<!-- ClientsRoutingModule -->
<g id="node11" class="node">
<title>ClientsRoutingModule</title>
<polygon fill="#8dd3c7" stroke="black" points="3510.34,-84.8 3507.34,-88.8 3486.34,-88.8 3483.34,-84.8 3365.66,-84.8 3365.66,-48.8 3510.34,-48.8 3510.34,-84.8"/>
<text text-anchor="middle" x="3438" y="-62.6" font-family="Times,serif" font-size="14.00">ClientsRoutingModule</text>
</g>
<!-- ClientsRoutingModule&#45;&gt;ClientsModule -->
<g id="edge9" class="edge">
<title>ClientsRoutingModule&#45;&gt;ClientsModule</title>
<path fill="none" stroke="black" d="M3438,-85.02C3438,-105.17 3438,-134.8 3438,-134.8 3438,-134.8 3652.38,-134.8 3652.38,-134.8"/>
<polygon fill="black" stroke="black" points="3652.38,-138.3 3662.38,-134.8 3652.38,-131.3 3652.38,-138.3"/>
</g>
<!-- FooterComponent -->
<g id="node12" class="node">
<title>FooterComponent</title>
<polygon fill="#ffffb3" stroke="black" points="929.88,-152.8 812.12,-152.8 812.12,-116.8 929.88,-116.8 929.88,-152.8"/>
<text text-anchor="middle" x="871" y="-130.6" font-family="Times,serif" font-size="14.00">FooterComponent</text>
</g>
<!-- FooterComponent&#45;&gt;CoreModule -->
<g id="edge10" class="edge">
<title>FooterComponent&#45;&gt;CoreModule</title>
<path fill="none" stroke="black" d="M871,-116.77C871,-99.74 871,-76.8 871,-76.8 871,-76.8 520.62,-76.8 520.62,-76.8"/>
<polygon fill="black" stroke="black" points="520.62,-73.3 510.62,-76.8 520.62,-80.3 520.62,-73.3"/>
</g>
<!-- HeaderComponent -->
<g id="node13" class="node">
<title>HeaderComponent</title>
<polygon fill="#ffffb3" stroke="black" points="793.75,-152.8 672.25,-152.8 672.25,-116.8 793.75,-116.8 793.75,-152.8"/>
<text text-anchor="middle" x="733" y="-130.6" font-family="Times,serif" font-size="14.00">HeaderComponent</text>
</g>
<!-- HeaderComponent&#45;&gt;CoreModule -->
<g id="edge11" class="edge">
<title>HeaderComponent&#45;&gt;CoreModule</title>
<path fill="none" stroke="black" d="M733,-116.52C733,-100.85 733,-80.8 733,-80.8 733,-80.8 520.33,-80.8 520.33,-80.8"/>
<polygon fill="black" stroke="black" points="520.33,-77.3 510.33,-80.8 520.33,-84.3 520.33,-77.3"/>
</g>
<!-- NavComponent -->
<g id="node14" class="node">
<title>NavComponent</title>
<polygon fill="#ffffb3" stroke="black" points="654.16,-152.8 549.84,-152.8 549.84,-116.8 654.16,-116.8 654.16,-152.8"/>
<text text-anchor="middle" x="602" y="-130.6" font-family="Times,serif" font-size="14.00">NavComponent</text>
</g>
<!-- NavComponent&#45;&gt;CoreModule -->
<g id="edge12" class="edge">
<title>NavComponent&#45;&gt;CoreModule</title>
<path fill="none" stroke="black" d="M549.83,-140.8C517.25,-140.8 481.46,-140.8 481.46,-140.8 481.46,-140.8 481.46,-95.09 481.46,-95.09"/>
<polygon fill="black" stroke="black" points="484.96,-95.09 481.46,-85.09 477.96,-95.09 484.96,-95.09"/>
</g>
<!-- IconCloseComponent -->
<g id="node21" class="node">
<title>IconCloseComponent</title>
<polygon fill="#ffffb3" stroke="black" points="4417.1,-84.8 4278.9,-84.8 4278.9,-48.8 4417.1,-48.8 4417.1,-84.8"/>
<text text-anchor="middle" x="4348" y="-62.6" font-family="Times,serif" font-size="14.00">IconCloseComponent</text>
</g>
<!-- IconsModule -->
<g id="node25" class="node">
<title>IconsModule</title>
<polygon fill="#8dd3c7" stroke="black" points="4462.88,-152.8 4459.88,-156.8 4438.88,-156.8 4435.88,-152.8 4373.12,-152.8 4373.12,-116.8 4462.88,-116.8 4462.88,-152.8"/>
<text text-anchor="middle" x="4418" y="-130.6" font-family="Times,serif" font-size="14.00">IconsModule</text>
</g>
<!-- IconCloseComponent&#45;&gt;IconsModule -->
<g id="edge19" class="edge">
<title>IconCloseComponent&#45;&gt;IconsModule</title>
<path fill="none" stroke="black" d="M4395.06,-85.02C4395.06,-85.02 4395.06,-106.53 4395.06,-106.53"/>
<polygon fill="black" stroke="black" points="4391.56,-106.53 4395.06,-116.53 4398.56,-106.53 4391.56,-106.53"/>
</g>
<!-- IconDeleteComponent -->
<g id="node22" class="node">
<title>IconDeleteComponent</title>
<polygon fill="#ffffb3" stroke="black" points="4261.24,-84.8 4118.76,-84.8 4118.76,-48.8 4261.24,-48.8 4261.24,-84.8"/>
<text text-anchor="middle" x="4190" y="-62.6" font-family="Times,serif" font-size="14.00">IconDeleteComponent</text>
</g>
<!-- IconDeleteComponent&#45;&gt;IconsModule -->
<g id="edge20" class="edge">
<title>IconDeleteComponent&#45;&gt;IconsModule</title>
<path fill="none" stroke="black" d="M4253.44,-85.02C4253.44,-105.17 4253.44,-134.8 4253.44,-134.8 4253.44,-134.8 4363.03,-134.8 4363.03,-134.8"/>
<polygon fill="black" stroke="black" points="4363.03,-138.3 4373.03,-134.8 4363.03,-131.3 4363.03,-138.3"/>
</g>
<!-- IconEditComponent -->
<g id="node23" class="node">
<title>IconEditComponent</title>
<polygon fill="#ffffb3" stroke="black" points="4712.54,-84.8 4583.46,-84.8 4583.46,-48.8 4712.54,-48.8 4712.54,-84.8"/>
<text text-anchor="middle" x="4648" y="-62.6" font-family="Times,serif" font-size="14.00">IconEditComponent</text>
</g>
<!-- IconEditComponent&#45;&gt;IconsModule -->
<g id="edge21" class="edge">
<title>IconEditComponent&#45;&gt;IconsModule</title>
<path fill="none" stroke="black" d="M4669.59,-84.83C4669.59,-101.86 4669.59,-124.8 4669.59,-124.8 4669.59,-124.8 4472.98,-124.8 4472.98,-124.8"/>
<polygon fill="black" stroke="black" points="4472.98,-121.3 4462.98,-124.8 4472.98,-128.3 4472.98,-121.3"/>
</g>
<!-- IconNavComponent -->
<g id="node24" class="node">
<title>IconNavComponent</title>
<polygon fill="#ffffb3" stroke="black" points="4564.53,-84.8 4435.47,-84.8 4435.47,-48.8 4564.53,-48.8 4564.53,-84.8"/>
<text text-anchor="middle" x="4500" y="-62.6" font-family="Times,serif" font-size="14.00">IconNavComponent</text>
</g>
<!-- IconNavComponent&#45;&gt;IconsModule -->
<g id="edge22" class="edge">
<title>IconNavComponent&#45;&gt;IconsModule</title>
<path fill="none" stroke="black" d="M4449.09,-85.02C4449.09,-85.02 4449.09,-106.53 4449.09,-106.53"/>
<polygon fill="black" stroke="black" points="4445.59,-106.53 4449.09,-116.53 4452.59,-106.53 4445.59,-106.53"/>
</g>
<!-- IconCloseComponent  -->
<g id="node26" class="node">
<title>IconCloseComponent </title>
<polygon fill="#fb8072" stroke="black" points="4720.6,-220.8 4579.4,-220.8 4579.4,-184.8 4720.6,-184.8 4720.6,-220.8"/>
<text text-anchor="middle" x="4650" y="-198.6" font-family="Times,serif" font-size="14.00">IconCloseComponent </text>
</g>
<!-- IconsModule&#45;&gt;IconCloseComponent  -->
<g id="edge23" class="edge">
<title>IconsModule&#45;&gt;IconCloseComponent </title>
<path fill="none" stroke="black" stroke-dasharray="5,2" d="M4462.97,-131.8C4524.23,-131.8 4626.41,-131.8 4626.41,-131.8 4626.41,-131.8 4626.41,-174.52 4626.41,-174.52"/>
<polygon fill="black" stroke="black" points="4622.91,-174.52 4626.41,-184.52 4629.91,-174.52 4622.91,-174.52"/>
</g>
<!-- IconDeleteComponent  -->
<g id="node27" class="node">
<title>IconDeleteComponent </title>
<polygon fill="#fb8072" stroke="black" points="4561.24,-220.8 4414.76,-220.8 4414.76,-184.8 4561.24,-184.8 4561.24,-220.8"/>
<text text-anchor="middle" x="4488" y="-198.6" font-family="Times,serif" font-size="14.00">IconDeleteComponent </text>
</g>
<!-- IconsModule&#45;&gt;IconDeleteComponent  -->
<g id="edge24" class="edge">
<title>IconsModule&#45;&gt;IconDeleteComponent </title>
<path fill="none" stroke="black" stroke-dasharray="5,2" d="M4438.91,-153.02C4438.91,-153.02 4438.91,-174.53 4438.91,-174.53"/>
<polygon fill="black" stroke="black" points="4435.41,-174.53 4438.91,-184.53 4442.41,-174.53 4435.41,-174.53"/>
</g>
<!-- IconEditComponent  -->
<g id="node28" class="node">
<title>IconEditComponent </title>
<polygon fill="#fb8072" stroke="black" points="4396.54,-220.8 4263.46,-220.8 4263.46,-184.8 4396.54,-184.8 4396.54,-220.8"/>
<text text-anchor="middle" x="4330" y="-198.6" font-family="Times,serif" font-size="14.00">IconEditComponent </text>
</g>
<!-- IconsModule&#45;&gt;IconEditComponent  -->
<g id="edge25" class="edge">
<title>IconsModule&#45;&gt;IconEditComponent </title>
<path fill="none" stroke="black" stroke-dasharray="5,2" d="M4384.79,-153.02C4384.79,-153.02 4384.79,-174.53 4384.79,-174.53"/>
<polygon fill="black" stroke="black" points="4381.29,-174.53 4384.79,-184.53 4388.29,-174.53 4381.29,-174.53"/>
</g>
<!-- IconNavComponent  -->
<g id="node29" class="node">
<title>IconNavComponent </title>
<polygon fill="#fb8072" stroke="black" points="4245.53,-220.8 4112.47,-220.8 4112.47,-184.8 4245.53,-184.8 4245.53,-220.8"/>
<text text-anchor="middle" x="4179" y="-198.6" font-family="Times,serif" font-size="14.00">IconNavComponent </text>
</g>
<!-- IconsModule&#45;&gt;IconNavComponent  -->
<g id="edge26" class="edge">
<title>IconsModule&#45;&gt;IconNavComponent </title>
<path fill="none" stroke="black" stroke-dasharray="5,2" d="M4373.07,-143.8C4304.62,-143.8 4182.07,-143.8 4182.07,-143.8 4182.07,-143.8 4182.07,-174.78 4182.07,-174.78"/>
<polygon fill="black" stroke="black" points="4178.57,-174.78 4182.07,-184.78 4185.57,-174.78 4178.57,-174.78"/>
</g>
<!-- PageForgotPasswordComponent -->
<g id="node30" class="node">
<title>PageForgotPasswordComponent</title>
<polygon fill="#ffffb3" stroke="black" points="5333.55,-84.8 5134.45,-84.8 5134.45,-48.8 5333.55,-48.8 5333.55,-84.8"/>
<text text-anchor="middle" x="5234" y="-62.6" font-family="Times,serif" font-size="14.00">PageForgotPasswordComponent</text>
</g>
<!-- LoginModule -->
<g id="node34" class="node">
<title>LoginModule</title>
<polygon fill="#8dd3c7" stroke="black" points="5280.49,-152.8 5277.49,-156.8 5256.49,-156.8 5253.49,-152.8 5187.51,-152.8 5187.51,-116.8 5280.49,-116.8 5280.49,-152.8"/>
<text text-anchor="middle" x="5234" y="-130.6" font-family="Times,serif" font-size="14.00">LoginModule</text>
</g>
<!-- PageForgotPasswordComponent&#45;&gt;LoginModule -->
<g id="edge27" class="edge">
<title>PageForgotPasswordComponent&#45;&gt;LoginModule</title>
<path fill="none" stroke="black" d="M5234,-85.02C5234,-85.02 5234,-106.53 5234,-106.53"/>
<polygon fill="black" stroke="black" points="5230.5,-106.53 5234,-116.53 5237.5,-106.53 5230.5,-106.53"/>
</g>
<!-- PageResetPasswordComponent -->
<g id="node31" class="node">
<title>PageResetPasswordComponent</title>
<polygon fill="#ffffb3" stroke="black" points="5116.82,-84.8 4923.18,-84.8 4923.18,-48.8 5116.82,-48.8 5116.82,-84.8"/>
<text text-anchor="middle" x="5020" y="-62.6" font-family="Times,serif" font-size="14.00">PageResetPasswordComponent</text>
</g>
<!-- PageResetPasswordComponent&#45;&gt;LoginModule -->
<g id="edge28" class="edge">
<title>PageResetPasswordComponent&#45;&gt;LoginModule</title>
<path fill="none" stroke="black" d="M5020,-84.97C5020,-106.3 5020,-138.8 5020,-138.8 5020,-138.8 5177.3,-138.8 5177.3,-138.8"/>
<polygon fill="black" stroke="black" points="5177.3,-142.3 5187.3,-138.8 5177.3,-135.3 5177.3,-142.3"/>
</g>
<!-- PageSignInComponent -->
<g id="node32" class="node">
<title>PageSignInComponent</title>
<polygon fill="#ffffb3" stroke="black" points="5666.88,-84.8 5521.12,-84.8 5521.12,-48.8 5666.88,-48.8 5666.88,-84.8"/>
<text text-anchor="middle" x="5594" y="-62.6" font-family="Times,serif" font-size="14.00">PageSignInComponent</text>
</g>
<!-- PageSignInComponent&#45;&gt;LoginModule -->
<g id="edge29" class="edge">
<title>PageSignInComponent&#45;&gt;LoginModule</title>
<path fill="none" stroke="black" d="M5594,-85.09C5594,-107.01 5594,-140.8 5594,-140.8 5594,-140.8 5290.69,-140.8 5290.69,-140.8"/>
<polygon fill="black" stroke="black" points="5290.69,-137.3 5280.69,-140.8 5290.69,-144.3 5290.69,-137.3"/>
</g>
<!-- PageSignUpComponent -->
<g id="node33" class="node">
<title>PageSignUpComponent</title>
<polygon fill="#ffffb3" stroke="black" points="5502.83,-84.8 5351.17,-84.8 5351.17,-48.8 5502.83,-48.8 5502.83,-84.8"/>
<text text-anchor="middle" x="5427" y="-62.6" font-family="Times,serif" font-size="14.00">PageSignUpComponent</text>
</g>
<!-- PageSignUpComponent&#45;&gt;LoginModule -->
<g id="edge30" class="edge">
<title>PageSignUpComponent&#45;&gt;LoginModule</title>
<path fill="none" stroke="black" d="M5427,-85.07C5427,-103.36 5427,-128.8 5427,-128.8 5427,-128.8 5290.72,-128.8 5290.72,-128.8"/>
<polygon fill="black" stroke="black" points="5290.72,-125.3 5280.72,-128.8 5290.72,-132.3 5290.72,-125.3"/>
</g>
<!-- LoginRoutingModule -->
<g id="node35" class="node">
<title>LoginRoutingModule</title>
<polygon fill="#8dd3c7" stroke="black" points="4899.11,-84.8 4896.11,-88.8 4875.11,-88.8 4872.11,-84.8 4760.89,-84.8 4760.89,-48.8 4899.11,-48.8 4899.11,-84.8"/>
<text text-anchor="middle" x="4830" y="-62.6" font-family="Times,serif" font-size="14.00">LoginRoutingModule</text>
</g>
<!-- LoginRoutingModule&#45;&gt;LoginModule -->
<g id="edge31" class="edge">
<title>LoginRoutingModule&#45;&gt;LoginModule</title>
<path fill="none" stroke="black" d="M4830,-85.12C4830,-108.46 4830,-145.8 4830,-145.8 4830,-145.8 5177.26,-145.8 5177.26,-145.8"/>
<polygon fill="black" stroke="black" points="5177.26,-149.3 5187.26,-145.8 5177.26,-142.3 5177.26,-149.3"/>
</g>
<!-- PageAddOrderComponent -->
<g id="node36" class="node">
<title>PageAddOrderComponent</title>
<polygon fill="#ffffb3" stroke="black" points="2264.8,-84.8 2099.2,-84.8 2099.2,-48.8 2264.8,-48.8 2264.8,-84.8"/>
<text text-anchor="middle" x="2182" y="-62.6" font-family="Times,serif" font-size="14.00">PageAddOrderComponent</text>
</g>
<!-- OrdersModule -->
<g id="node39" class="node">
<title>OrdersModule</title>
<polygon fill="#8dd3c7" stroke="black" points="2230.65,-152.8 2227.65,-156.8 2206.65,-156.8 2203.65,-152.8 2133.35,-152.8 2133.35,-116.8 2230.65,-116.8 2230.65,-152.8"/>
<text text-anchor="middle" x="2182" y="-130.6" font-family="Times,serif" font-size="14.00">OrdersModule</text>
</g>
<!-- PageAddOrderComponent&#45;&gt;OrdersModule -->
<g id="edge32" class="edge">
<title>PageAddOrderComponent&#45;&gt;OrdersModule</title>
<path fill="none" stroke="black" d="M2182,-85.02C2182,-85.02 2182,-106.53 2182,-106.53"/>
<polygon fill="black" stroke="black" points="2178.5,-106.53 2182,-116.53 2185.5,-106.53 2178.5,-106.53"/>
</g>
<!-- PageEditOrderComponent -->
<g id="node37" class="node">
<title>PageEditOrderComponent</title>
<polygon fill="#ffffb3" stroke="black" points="2081.03,-84.8 1916.97,-84.8 1916.97,-48.8 2081.03,-48.8 2081.03,-84.8"/>
<text text-anchor="middle" x="1999" y="-62.6" font-family="Times,serif" font-size="14.00">PageEditOrderComponent</text>
</g>
<!-- PageEditOrderComponent&#45;&gt;OrdersModule -->
<g id="edge33" class="edge">
<title>PageEditOrderComponent&#45;&gt;OrdersModule</title>
<path fill="none" stroke="black" d="M1999,-85.07C1999,-103.36 1999,-128.8 1999,-128.8 1999,-128.8 2122.96,-128.8 2122.96,-128.8"/>
<polygon fill="black" stroke="black" points="2122.96,-132.3 2132.96,-128.8 2122.96,-125.3 2122.96,-132.3"/>
</g>
<!-- PageListOrdersComponent -->
<g id="node38" class="node">
<title>PageListOrdersComponent</title>
<polygon fill="#ffffb3" stroke="black" points="1899.42,-84.8 1730.58,-84.8 1730.58,-48.8 1899.42,-48.8 1899.42,-84.8"/>
<text text-anchor="middle" x="1815" y="-62.6" font-family="Times,serif" font-size="14.00">PageListOrdersComponent</text>
</g>
<!-- PageListOrdersComponent&#45;&gt;OrdersModule -->
<g id="edge34" class="edge">
<title>PageListOrdersComponent&#45;&gt;OrdersModule</title>
<path fill="none" stroke="black" d="M1815,-85.09C1815,-107.01 1815,-140.8 1815,-140.8 1815,-140.8 2123.27,-140.8 2123.27,-140.8"/>
<polygon fill="black" stroke="black" points="2123.27,-144.3 2133.27,-140.8 2123.27,-137.3 2123.27,-144.3"/>
</g>
<!-- OrdersRoutingModule -->
<g id="node40" class="node">
<title>OrdersRoutingModule</title>
<polygon fill="#8dd3c7" stroke="black" points="2431.27,-84.8 2428.27,-88.8 2407.27,-88.8 2404.27,-84.8 2288.73,-84.8 2288.73,-48.8 2431.27,-48.8 2431.27,-84.8"/>
<text text-anchor="middle" x="2360" y="-62.6" font-family="Times,serif" font-size="14.00">OrdersRoutingModule</text>
</g>
<!-- OrdersRoutingModule&#45;&gt;OrdersModule -->
<g id="edge35" class="edge">
<title>OrdersRoutingModule&#45;&gt;OrdersModule</title>
<path fill="none" stroke="black" d="M2360,-85.07C2360,-103.36 2360,-128.8 2360,-128.8 2360,-128.8 2241.11,-128.8 2241.11,-128.8"/>
<polygon fill="black" stroke="black" points="2241.11,-125.3 2231.11,-128.8 2241.11,-132.3 2241.11,-125.3"/>
</g>
<!-- SharedModule -->
<g id="node41" class="node">
<title>SharedModule</title>
<polygon fill="#8dd3c7" stroke="black" points="2548.43,-84.8 2545.43,-88.8 2524.43,-88.8 2521.43,-84.8 2449.57,-84.8 2449.57,-48.8 2548.43,-48.8 2548.43,-84.8"/>
<text text-anchor="middle" x="2499" y="-62.6" font-family="Times,serif" font-size="14.00">SharedModule</text>
</g>
<!-- SharedModule&#45;&gt;IconsModule  -->
<g id="edge43" class="edge">
<title>SharedModule&#45;&gt;IconsModule </title>
<path fill="none" stroke="black" stroke-dasharray="5,2" d="M2474.39,-85C2474.39,-90.83 2474.39,-95.8 2474.39,-95.8 2474.39,-95.8 1520.56,-95.8 1520.56,-95.8 1520.56,-95.8 1520.56,-106.67 1520.56,-106.67"/>
<polygon fill="black" stroke="black" points="1517.06,-106.67 1520.56,-116.67 1524.06,-106.67 1517.06,-106.67"/>
</g>
<!-- SharedModule&#45;&gt;TemplatesModule  -->
<g id="edge45" class="edge">
<title>SharedModule&#45;&gt;TemplatesModule </title>
<path fill="none" stroke="black" stroke-dasharray="5,2" d="M2499,-84.93C2499,-95.51 2499,-106.8 2499,-106.8 2499,-106.8 1650.23,-106.8 1650.23,-106.8 1650.23,-106.8 1650.23,-107.78 1650.23,-107.78"/>
<polygon fill="black" stroke="black" points="1646.73,-106.59 1650.23,-116.59 1653.73,-106.59 1646.73,-106.59"/>
</g>
<!-- SharedModule&#45;&gt;OrdersModule -->
<g id="edge36" class="edge">
<title>SharedModule&#45;&gt;OrdersModule</title>
<path fill="none" stroke="black" d="M2523.61,-85.09C2523.61,-107.01 2523.61,-140.8 2523.61,-140.8 2523.61,-140.8 2240.94,-140.8 2240.94,-140.8"/>
<polygon fill="black" stroke="black" points="2240.94,-137.3 2230.94,-140.8 2240.94,-144.3 2240.94,-137.3"/>
</g>
<!-- BtnComponent  -->
<g id="node48" class="node">
<title>BtnComponent </title>
<polygon fill="#fb8072" stroke="black" points="2949.56,-152.8 2844.44,-152.8 2844.44,-116.8 2949.56,-116.8 2949.56,-152.8"/>
<text text-anchor="middle" x="2897" y="-130.6" font-family="Times,serif" font-size="14.00">BtnComponent </text>
</g>
<!-- SharedModule&#45;&gt;BtnComponent  -->
<g id="edge42" class="edge">
<title>SharedModule&#45;&gt;BtnComponent </title>
<path fill="none" stroke="black" stroke-dasharray="5,2" d="M2548.6,-69.8C2655.29,-69.8 2897,-69.8 2897,-69.8 2897,-69.8 2897,-106.69 2897,-106.69"/>
<polygon fill="black" stroke="black" points="2893.5,-106.69 2897,-116.69 2900.5,-106.69 2893.5,-106.69"/>
</g>
<!-- TableLightComponent  -->
<g id="node49" class="node">
<title>TableLightComponent </title>
<polygon fill="#fb8072" stroke="black" points="2826.53,-152.8 2679.47,-152.8 2679.47,-116.8 2826.53,-116.8 2826.53,-152.8"/>
<text text-anchor="middle" x="2753" y="-130.6" font-family="Times,serif" font-size="14.00">TableLightComponent </text>
</g>
<!-- SharedModule&#45;&gt;TableLightComponent  -->
<g id="edge44" class="edge">
<title>SharedModule&#45;&gt;TableLightComponent </title>
<path fill="none" stroke="black" stroke-dasharray="5,2" d="M2548.27,-74.8C2622.14,-74.8 2753,-74.8 2753,-74.8 2753,-74.8 2753,-106.8 2753,-106.8"/>
<polygon fill="black" stroke="black" points="2749.5,-106.8 2753,-116.8 2756.5,-106.8 2749.5,-106.8"/>
</g>
<!-- TotalPipe  -->
<g id="node50" class="node">
<title>TotalPipe </title>
<polygon fill="#fb8072" stroke="black" points="2661.93,-152.8 2588.07,-152.8 2588.07,-116.8 2661.93,-116.8 2661.93,-152.8"/>
<text text-anchor="middle" x="2625" y="-130.6" font-family="Times,serif" font-size="14.00">TotalPipe </text>
</g>
<!-- SharedModule&#45;&gt;TotalPipe  -->
<g id="edge46" class="edge">
<title>SharedModule&#45;&gt;TotalPipe </title>
<path fill="none" stroke="black" stroke-dasharray="5,2" d="M2548.44,-79.8C2583.74,-79.8 2625,-79.8 2625,-79.8 2625,-79.8 2625,-106.79 2625,-106.79"/>
<polygon fill="black" stroke="black" points="2621.5,-106.79 2625,-116.79 2628.5,-106.79 2621.5,-106.79"/>
</g>
<!-- PageNotFoundComponent -->
<g id="node42" class="node">
<title>PageNotFoundComponent</title>
<polygon fill="#ffffb3" stroke="black" points="6084.83,-84.8 5919.17,-84.8 5919.17,-48.8 6084.83,-48.8 6084.83,-84.8"/>
<text text-anchor="middle" x="6002" y="-62.6" font-family="Times,serif" font-size="14.00">PageNotFoundComponent</text>
</g>
<!-- PageNotFoundModule -->
<g id="node43" class="node">
<title>PageNotFoundModule</title>
<polygon fill="#8dd3c7" stroke="black" points="5972.55,-152.8 5969.55,-156.8 5948.55,-156.8 5945.55,-152.8 5829.45,-152.8 5829.45,-116.8 5972.55,-116.8 5972.55,-152.8"/>
<text text-anchor="middle" x="5901" y="-130.6" font-family="Times,serif" font-size="14.00">PageNotFoundModule</text>
</g>
<!-- PageNotFoundComponent&#45;&gt;PageNotFoundModule -->
<g id="edge37" class="edge">
<title>PageNotFoundComponent&#45;&gt;PageNotFoundModule</title>
<path fill="none" stroke="black" d="M5946.06,-85.02C5946.06,-85.02 5946.06,-106.53 5946.06,-106.53"/>
<polygon fill="black" stroke="black" points="5942.56,-106.53 5946.06,-116.53 5949.56,-106.53 5942.56,-106.53"/>
</g>
<!-- PageNotFoundRoutingModule -->
<g id="node44" class="node">
<title>PageNotFoundRoutingModule</title>
<polygon fill="#8dd3c7" stroke="black" points="5895.17,-84.8 5892.17,-88.8 5871.17,-88.8 5868.17,-84.8 5706.83,-84.8 5706.83,-48.8 5895.17,-48.8 5895.17,-84.8"/>
<text text-anchor="middle" x="5801" y="-62.6" font-family="Times,serif" font-size="14.00">PageNotFoundRoutingModule</text>
</g>
<!-- PageNotFoundRoutingModule&#45;&gt;PageNotFoundModule -->
<g id="edge38" class="edge">
<title>PageNotFoundRoutingModule&#45;&gt;PageNotFoundModule</title>
<path fill="none" stroke="black" d="M5862.28,-85.02C5862.28,-85.02 5862.28,-106.53 5862.28,-106.53"/>
<polygon fill="black" stroke="black" points="5858.78,-106.53 5862.28,-116.53 5865.78,-106.53 5858.78,-106.53"/>
</g>
<!-- BtnComponent -->
<g id="node45" class="node">
<title>BtnComponent</title>
<polygon fill="#ffffb3" stroke="black" points="3325.56,-152.8 3224.44,-152.8 3224.44,-116.8 3325.56,-116.8 3325.56,-152.8"/>
<text text-anchor="middle" x="3275" y="-130.6" font-family="Times,serif" font-size="14.00">BtnComponent</text>
</g>
<!-- BtnComponent&#45;&gt;SharedModule -->
<g id="edge39" class="edge">
<title>BtnComponent&#45;&gt;SharedModule</title>
<path fill="none" stroke="black" d="M3275,-116.65C3275,-93.04 3275,-54.8 3275,-54.8 3275,-54.8 2558.43,-54.8 2558.43,-54.8"/>
<polygon fill="black" stroke="black" points="2558.43,-51.3 2548.43,-54.8 2558.43,-58.3 2558.43,-51.3"/>
</g>
<!-- TableLightComponent -->
<g id="node46" class="node">
<title>TableLightComponent</title>
<polygon fill="#ffffb3" stroke="black" points="3205.53,-152.8 3062.47,-152.8 3062.47,-116.8 3205.53,-116.8 3205.53,-152.8"/>
<text text-anchor="middle" x="3134" y="-130.6" font-family="Times,serif" font-size="14.00">TableLightComponent</text>
</g>
<!-- TableLightComponent&#45;&gt;SharedModule -->
<g id="edge40" class="edge">
<title>TableLightComponent&#45;&gt;SharedModule</title>
<path fill="none" stroke="black" d="M3134,-116.64C3134,-94.45 3134,-59.8 3134,-59.8 3134,-59.8 2558.3,-59.8 2558.3,-59.8"/>
<polygon fill="black" stroke="black" points="2558.3,-56.3 2548.3,-59.8 2558.3,-63.3 2558.3,-56.3"/>
</g>
<!-- TotalPipe -->
<g id="node47" class="node">
<title>TotalPipe</title>
<polygon fill="#ffffb3" stroke="black" points="3044.44,-152.8 2973.56,-152.8 2973.56,-116.8 3044.44,-116.8 3044.44,-152.8"/>
<text text-anchor="middle" x="3009" y="-130.6" font-family="Times,serif" font-size="14.00">TotalPipe</text>
</g>
<!-- TotalPipe&#45;&gt;SharedModule -->
<g id="edge41" class="edge">
<title>TotalPipe&#45;&gt;SharedModule</title>
<path fill="none" stroke="black" d="M3009,-116.77C3009,-96.03 3009,-64.8 3009,-64.8 3009,-64.8 2558.36,-64.8 2558.36,-64.8"/>
<polygon fill="black" stroke="black" points="2558.36,-61.3 2548.36,-64.8 2558.36,-68.3 2558.36,-61.3"/>
</g>
<!-- TemplateContainerComponent -->
<g id="node51" class="node">
<title>TemplateContainerComponent</title>
<polygon fill="#ffffb3" stroke="black" points="6527.9,-84.8 6338.1,-84.8 6338.1,-48.8 6527.9,-48.8 6527.9,-84.8"/>
<text text-anchor="middle" x="6433" y="-62.6" font-family="Times,serif" font-size="14.00">TemplateContainerComponent</text>
</g>
<!-- TemplatesModule -->
<g id="node53" class="node">
<title>TemplatesModule</title>
<polygon fill="#8dd3c7" stroke="black" points="6283.86,-152.8 6280.86,-156.8 6259.86,-156.8 6256.86,-152.8 6166.14,-152.8 6166.14,-116.8 6283.86,-116.8 6283.86,-152.8"/>
<text text-anchor="middle" x="6225" y="-130.6" font-family="Times,serif" font-size="14.00">TemplatesModule</text>
</g>
<!-- TemplateContainerComponent&#45;&gt;TemplatesModule -->
<g id="edge47" class="edge">
<title>TemplateContainerComponent&#45;&gt;TemplatesModule</title>
<path fill="none" stroke="black" d="M6464.65,-85.07C6464.65,-103.36 6464.65,-128.8 6464.65,-128.8 6464.65,-128.8 6293.93,-128.8 6293.93,-128.8"/>
<polygon fill="black" stroke="black" points="6293.93,-125.3 6283.93,-128.8 6293.93,-132.3 6293.93,-125.3"/>
</g>
<!-- TemplateFullWidthComponent -->
<g id="node52" class="node">
<title>TemplateFullWidthComponent</title>
<polygon fill="#ffffb3" stroke="black" points="6319.75,-84.8 6128.25,-84.8 6128.25,-48.8 6319.75,-48.8 6319.75,-84.8"/>
<text text-anchor="middle" x="6224" y="-62.6" font-family="Times,serif" font-size="14.00">TemplateFullWidthComponent</text>
</g>
<!-- TemplateFullWidthComponent&#45;&gt;TemplatesModule -->
<g id="edge48" class="edge">
<title>TemplateFullWidthComponent&#45;&gt;TemplatesModule</title>
<path fill="none" stroke="black" d="M6225,-85.02C6225,-85.02 6225,-106.53 6225,-106.53"/>
<polygon fill="black" stroke="black" points="6221.5,-106.53 6225,-116.53 6228.5,-106.53 6221.5,-106.53"/>
</g>
<!-- TemplateContainerComponent  -->
<g id="node54" class="node">
<title>TemplateContainerComponent </title>
<polygon fill="#fb8072" stroke="black" points="6531.4,-220.8 6338.6,-220.8 6338.6,-184.8 6531.4,-184.8 6531.4,-220.8"/>
<text text-anchor="middle" x="6435" y="-198.6" font-family="Times,serif" font-size="14.00">TemplateContainerComponent </text>
</g>
<!-- TemplatesModule&#45;&gt;TemplateContainerComponent  -->
<g id="edge49" class="edge">
<title>TemplatesModule&#45;&gt;TemplateContainerComponent </title>
<path fill="none" stroke="black" stroke-dasharray="5,2" d="M6284.3,-140.8C6335.6,-140.8 6401.6,-140.8 6401.6,-140.8 6401.6,-140.8 6401.6,-174.53 6401.6,-174.53"/>
<polygon fill="black" stroke="black" points="6398.1,-174.53 6401.6,-184.53 6405.1,-174.53 6398.1,-174.53"/>
</g>
<!-- TemplateFullWidthComponent  -->
<g id="node55" class="node">
<title>TemplateFullWidthComponent </title>
<polygon fill="#fb8072" stroke="black" points="6320.75,-220.8 6125.25,-220.8 6125.25,-184.8 6320.75,-184.8 6320.75,-220.8"/>
<text text-anchor="middle" x="6223" y="-198.6" font-family="Times,serif" font-size="14.00">TemplateFullWidthComponent </text>
</g>
<!-- TemplatesModule&#45;&gt;TemplateFullWidthComponent  -->
<g id="edge50" class="edge">
<title>TemplatesModule&#45;&gt;TemplateFullWidthComponent </title>
<path fill="none" stroke="black" stroke-dasharray="5,2" d="M6225,-153.02C6225,-153.02 6225,-174.53 6225,-174.53"/>
<polygon fill="black" stroke="black" points="6221.5,-174.53 6225,-184.53 6228.5,-174.53 6221.5,-174.53"/>
</g>
<!-- UiComponent -->
<g id="node56" class="node">
<title>UiComponent</title>
<polygon fill="#ffffb3" stroke="black" points="6667.83,-84.8 6572.17,-84.8 6572.17,-48.8 6667.83,-48.8 6667.83,-84.8"/>
<text text-anchor="middle" x="6620" y="-62.6" font-family="Times,serif" font-size="14.00">UiComponent</text>
</g>
<!-- UiModule -->
<g id="node57" class="node">
<title>UiModule</title>
<polygon fill="#8dd3c7" stroke="black" points="6656.55,-152.8 6653.55,-156.8 6632.55,-156.8 6629.55,-152.8 6583.45,-152.8 6583.45,-116.8 6656.55,-116.8 6656.55,-152.8"/>
<text text-anchor="middle" x="6620" y="-130.6" font-family="Times,serif" font-size="14.00">UiModule</text>
</g>
<!-- UiComponent&#45;&gt;UiModule -->
<g id="edge51" class="edge">
<title>UiComponent&#45;&gt;UiModule</title>
<path fill="none" stroke="black" d="M6620,-85.02C6620,-85.02 6620,-106.53 6620,-106.53"/>
<polygon fill="black" stroke="black" points="6616.5,-106.53 6620,-116.53 6623.5,-106.53 6616.5,-106.53"/>
</g>
<!-- UiComponent  -->
<g id="node58" class="node">
<title>UiComponent </title>
<polygon fill="#fb8072" stroke="black" points="6669.33,-220.8 6570.67,-220.8 6570.67,-184.8 6669.33,-184.8 6669.33,-220.8"/>
<text text-anchor="middle" x="6620" y="-198.6" font-family="Times,serif" font-size="14.00">UiComponent </text>
</g>
<!-- UiModule&#45;&gt;UiComponent  -->
<g id="edge52" class="edge">
<title>UiModule&#45;&gt;UiComponent </title>
<path fill="none" stroke="black" stroke-dasharray="5,2" d="M6620,-153.02C6620,-153.02 6620,-174.53 6620,-174.53"/>
<polygon fill="black" stroke="black" points="6616.5,-174.53 6620,-184.53 6623.5,-174.53 6616.5,-174.53"/>
</g>
</g>
</svg>
