<?xml version="1.0" encoding="UTF-8" standalone="no"?>
<!DOCTYPE svg PUBLIC "-//W3C//DTD SVG 1.1//EN"
 "http://www.w3.org/Graphics/SVG/1.1/DTD/svg11.dtd">
<!-- Generated by graphviz version 5.0.0 (20220707.1540)
 -->
<!-- Title: dependencies Pages: 1 -->
<svg width="542pt" height="247pt"
 viewBox="0.00 0.00 542.00 246.80" xmlns="http://www.w3.org/2000/svg" xmlns:xlink="http://www.w3.org/1999/xlink">
<g id="graph0" class="graph" transform="scale(1 1) rotate(0) translate(4 242.8)">
<title>dependencies</title>
<polygon fill="white" stroke="transparent" points="-4,4 -4,-242.8 538,-242.8 538,4 -4,4"/>
<text text-anchor="middle" x="267" y="-8.2" font-family="sans-serif" font-size="14.00">dependencies</text>
<g id="clust1" class="cluster">
<title>cluster_AppModule</title>
<polygon fill="none" stroke="black" stroke-dasharray="1,5" points="8,-32.8 8,-230.8 526,-230.8 526,-32.8 8,-32.8"/>
</g>
<g id="clust7" class="cluster">
<title>cluster_AppModule_bootstrap</title>
<polygon fill="none" stroke="black" points="198,-170.8 198,-222.8 322,-222.8 322,-170.8 198,-170.8"/>
</g>
<g id="clust5" class="cluster">
<title>cluster_AppModule_imports</title>
<polygon fill="none" stroke="black" points="269,-40.8 269,-92.8 518,-92.8 518,-40.8 269,-40.8"/>
</g>
<g id="clust2" class="cluster">
<title>cluster_AppModule_declarations</title>
<polygon fill="none" stroke="black" points="16,-40.8 16,-92.8 261,-92.8 261,-40.8 16,-40.8"/>
</g>
<!-- AppComponent -->
<g id="node1" class="node">
<title>AppComponent</title>
<polygon fill="#ffffb3" stroke="black" points="252.94,-84.8 147.06,-84.8 147.06,-48.8 252.94,-48.8 252.94,-84.8"/>
<text text-anchor="middle" x="200" y="-62.6" font-family="Times,serif" font-size="14.00">AppComponent</text>
</g>
<!-- AppModule -->
<g id="node3" class="node">
<title>AppModule</title>
<polygon fill="#8dd3c7" stroke="black" points="301.66,-149.8 298.66,-153.8 277.66,-153.8 274.66,-149.8 218.34,-149.8 218.34,-113.8 301.66,-113.8 301.66,-149.8"/>
<text text-anchor="middle" x="260" y="-127.6" font-family="Times,serif" font-size="14.00">AppModule</text>
</g>
<!-- AppComponent&#45;&gt;AppModule -->
<g id="edge1" class="edge">
<title>AppComponent&#45;&gt;AppModule</title>
<path fill="none" stroke="black" d="M235.44,-84.91C235.44,-84.91 235.44,-103.79 235.44,-103.79"/>
<polygon fill="black" stroke="black" points="231.94,-103.79 235.44,-113.79 238.94,-103.79 231.94,-103.79"/>
</g>
<!-- TestComponent -->
<g id="node2" class="node">
<title>TestComponent</title>
<polygon fill="#ffffb3" stroke="black" points="129.94,-84.8 24.06,-84.8 24.06,-48.8 129.94,-48.8 129.94,-84.8"/>
<text text-anchor="middle" x="77" y="-62.6" font-family="Times,serif" font-size="14.00">TestComponent</text>
</g>
<!-- TestComponent&#45;&gt;AppModule -->
<g id="edge2" class="edge">
<title>TestComponent&#45;&gt;AppModule</title>
<path fill="none" stroke="black" d="M77,-84.91C77,-104.14 77,-131.8 77,-131.8 77,-131.8 208.02,-131.8 208.02,-131.8"/>
<polygon fill="black" stroke="black" points="208.02,-135.3 218.02,-131.8 208.02,-128.3 208.02,-135.3"/>
</g>
<!-- AppComponent  -->
<g id="node6" class="node">
<title>AppComponent </title>
<polygon fill="#80b1d3" stroke="black" points="314.44,-214.8 205.56,-214.8 205.56,-178.8 314.44,-178.8 314.44,-214.8"/>
<text text-anchor="middle" x="260" y="-192.6" font-family="Times,serif" font-size="14.00">AppComponent </text>
</g>
<!-- AppModule&#45;&gt;AppComponent  -->
<g id="edge5" class="edge">
<title>AppModule&#45;&gt;AppComponent </title>
<path fill="none" stroke="black" stroke-dasharray="1,5" d="M260,-149.91C260,-149.91 260,-168.79 260,-168.79"/>
<polygon fill="black" stroke="black" points="256.5,-168.79 260,-178.79 263.5,-168.79 256.5,-168.79"/>
</g>
<!-- AppRoutingModule -->
<g id="node4" class="node">
<title>AppRoutingModule</title>
<polygon fill="#8dd3c7" stroke="black" points="510.28,-84.8 507.28,-88.8 486.28,-88.8 483.28,-84.8 381.72,-84.8 381.72,-48.8 510.28,-48.8 510.28,-84.8"/>
<text text-anchor="middle" x="446" y="-62.6" font-family="Times,serif" font-size="14.00">AppRoutingModule</text>
</g>
<!-- AppRoutingModule&#45;&gt;AppModule -->
<g id="edge3" class="edge">
<title>AppRoutingModule&#45;&gt;AppModule</title>
<path fill="none" stroke="black" d="M446,-84.91C446,-104.14 446,-131.8 446,-131.8 446,-131.8 311.74,-131.8 311.74,-131.8"/>
<polygon fill="black" stroke="black" points="311.74,-128.3 301.74,-131.8 311.74,-135.3 311.74,-128.3"/>
</g>
<!-- CoreModule -->
<g id="node5" class="node">
<title>CoreModule</title>
<polygon fill="#8dd3c7" stroke="black" points="363.27,-84.8 360.27,-88.8 339.27,-88.8 336.27,-84.8 276.73,-84.8 276.73,-48.8 363.27,-48.8 363.27,-84.8"/>
<text text-anchor="middle" x="320" y="-62.6" font-family="Times,serif" font-size="14.00">CoreModule</text>
</g>
<!-- CoreModule&#45;&gt;AppModule -->
<g id="edge4" class="edge">
<title>CoreModule&#45;&gt;AppModule</title>
<path fill="none" stroke="black" d="M289.22,-84.91C289.22,-84.91 289.22,-103.79 289.22,-103.79"/>
<polygon fill="black" stroke="black" points="285.72,-103.79 289.22,-113.79 292.72,-103.79 285.72,-103.79"/>
</g>
</g>
</svg>
